<svg width="507" height="83" viewBox="0 0 507 83" fill="none" xmlns="http://www.w3.org/2000/svg">
<path d="M34.56 82.78C28.0747 82.78 22.1867 81.2867 16.896 78.3C11.6907 75.228 7.552 71.0893 4.48 65.884C1.49333 60.6787 0 54.8333 0 48.348C0 41.8627 1.49333 36.06 4.48 30.94C7.552 25.7347 11.6907 21.596 16.896 18.524C22.1867 15.452 28.0747 13.916 34.56 13.916C39.7653 13.916 44.7147 14.94 49.408 16.988C53.6038 18.7113 57.2733 21.1253 60.4165 24.23C61.1589 24.9634 61.1447 26.1506 60.43 26.9111L53.1961 34.6088C52.3964 35.4597 51.0455 35.4413 50.2028 34.6329C48.1696 32.6823 46.0274 31.1954 43.776 30.172C41.0453 28.8067 38.0587 28.124 34.816 28.124C31.3173 28.124 28.1173 29.02 25.216 30.812C22.4 32.604 20.1387 35.036 18.432 38.108C16.8107 41.0947 16 44.66 16 48.5C16 52.34 16.8533 55.644 18.56 58.716C20.2667 61.7027 22.5707 64.092 25.472 65.884C28.3733 67.676 31.616 68.572 35.2 68.572C38.272 68.572 41.1307 67.932 43.776 66.652C45.9621 65.6273 48.0661 64.1924 50.0882 62.3473C50.9288 61.5802 52.2377 61.5801 53.0214 62.4051L60.0171 69.7689C60.7448 70.535 60.7552 71.7396 59.9967 72.4752C56.8712 75.5061 53.2563 77.917 49.152 79.708C44.4587 81.756 39.5947 82.78 34.56 82.78Z" fill="white"/>
<path d="M99.667 82.78C93.0963 82.78 87.123 81.2867 81.747 78.3C76.4563 75.228 72.275 71.0893 69.203 65.884C66.131 60.6787 64.595 54.876 64.595 48.476C64.595 41.9907 66.131 36.1453 69.203 30.94C72.275 25.7347 76.4563 21.6387 81.747 18.652C87.123 15.58 93.0963 14.044 99.667 14.044C106.323 14.044 112.296 15.58 117.587 18.652C122.878 21.6387 127.059 25.7347 130.131 30.94C133.288 36.1453 134.867 41.9907 134.867 48.476C134.867 54.876 133.288 60.6787 130.131 65.884C127.059 71.0893 122.878 75.228 117.587 78.3C112.296 81.2867 106.323 82.78 99.667 82.78ZM99.667 68.7C103.336 68.7 106.622 67.804 109.523 66.012C112.424 64.1347 114.728 61.66 116.435 58.588C118.142 55.516 118.995 52.1453 118.995 48.476C118.995 44.636 118.142 41.18 116.435 38.108C114.728 35.036 112.382 32.604 109.395 30.812C106.494 29.02 103.251 28.124 99.667 28.124C96.083 28.124 92.8403 29.02 89.939 30.812C87.0377 32.604 84.7337 35.036 83.027 38.108C81.3203 41.18 80.467 44.636 80.467 48.476C80.467 52.1453 81.3203 55.516 83.027 58.588C84.7337 61.66 87.0377 64.1347 89.939 66.012C92.8403 67.804 96.083 68.7 99.667 68.7Z" fill="white"/>
<path d="M150 51.932C147.239 51.932 145 49.6934 145 46.932V43.236C145 40.4746 147.239 38.236 150 38.236H175.78C178.541 38.236 180.78 40.4746 180.78 43.236V46.932C180.78 49.6934 178.541 51.932 175.78 51.932H150Z" fill="white"/>
<path d="M212.224 82.652C207.445 82.652 203.221 81.7987 199.552 80.092C195.968 78.3853 193.152 75.996 191.104 72.924C189.056 69.852 188.032 66.3107 188.032 62.3C188.032 55.9853 190.421 51.0787 195.2 47.58C199.979 44.0813 206.549 42.332 214.912 42.332C220.629 42.332 225.995 43.1919 231.009 44.9118C231.336 45.0242 231.68 44.7826 231.68 44.4362V39.772C231.68 35.676 230.443 32.604 227.968 30.556C225.493 28.508 221.867 27.484 217.088 27.484C214.272 27.484 211.243 27.9533 208 28.892C205.366 29.5852 198.621 31.6141 193.941 33.3575C192.589 33.8611 191.089 32.884 191.075 31.4416L190.988 22.243C190.981 21.4591 191.431 20.7413 192.146 20.4194C196.845 18.303 201.361 16.7326 205.696 15.708C210.389 14.5133 215.083 13.916 219.776 13.916C228.651 13.916 235.52 16.0493 240.384 20.316C245.248 24.4973 247.68 30.4707 247.68 38.236V79.5C247.68 80.6046 246.785 81.5 245.68 81.5H233.68C232.575 81.5 231.68 80.6046 231.68 79.5V77.5141C231.68 77.1009 231.206 76.8639 230.869 77.103C228.284 78.9373 225.526 80.3176 222.592 81.244C219.435 82.1827 215.979 82.652 212.224 82.652ZM203.392 62.044C203.392 64.6893 204.544 66.8227 206.848 68.444C209.237 70.0653 212.395 70.876 216.32 70.876C219.307 70.876 222.08 70.492 224.64 69.724C226.975 69.0462 229.077 68.0029 230.946 66.5939C231.42 66.2367 231.68 65.6688 231.68 65.0753V57.3077C231.68 56.5276 231.229 55.8126 230.506 55.5189C228.638 54.7598 226.683 54.2042 224.64 53.852C222.251 53.34 219.691 53.084 216.96 53.084C212.693 53.084 209.365 53.8947 206.976 55.516C204.587 57.052 203.392 59.228 203.392 62.044Z" fill="white"/>
<path d="M262.074 81.5C260.969 81.5 260.074 80.6046 260.074 79.5V2.26115C260.074 1.05971 261.126 0.129409 262.318 0.276118L274.574 1.78399C275.577 1.90734 276.33 2.7589 276.33 3.76902V79.5C276.33 80.6046 275.435 81.5 274.33 81.5H262.074Z" fill="white"/>
<path d="M358.5 81.5C357.395 81.5 356.5 80.6046 356.5 79.5V15.5C356.5 14.3954 357.395 13.5 358.5 13.5H370.756C371.861 13.5 372.756 14.3954 372.756 15.5V17.6884C372.756 18.0607 373.149 18.3015 373.479 18.1292C376.002 16.8124 377.53 15.8014 380.735 15C384.235 14.125 386.793 13.788 390.548 13.788C393.05 13.788 395.07 14.056 396.608 14.5921C397.309 14.8365 397.716 15.5329 397.716 16.2755V25.7516C397.716 27.2148 396.111 28.4199 394.656 28.2641C394.315 28.2277 393.97 28.1858 393.62 28.124C392.169 27.868 390.676 27.74 389.14 27.74C385.641 27.74 382.441 28.636 379.54 30.428C376.846 32.1424 374.659 34.5599 372.981 37.6802C372.83 37.9597 372.756 38.2735 372.756 38.5909V79.5C372.756 80.6046 371.861 81.5 370.756 81.5H358.5Z" fill="white"/>
<path d="M311.044 82.652C306.265 82.652 302.041 81.7987 298.372 80.092C294.788 78.3853 291.972 75.996 289.924 72.924C287.876 69.852 286.852 66.3107 286.852 62.3C286.852 55.9853 289.241 51.0787 294.02 47.58C298.799 44.0813 305.369 42.332 313.732 42.332C319.449 42.332 324.815 43.1919 329.829 44.9118C330.156 45.0242 330.5 44.7826 330.5 44.4362V39.772C330.5 35.676 329.263 32.604 326.788 30.556C324.313 28.508 320.687 27.484 315.908 27.484C313.092 27.484 310.063 27.9533 306.82 28.892C304.189 29.5843 297.375 31.6086 292.664 33.3504C291.303 33.8535 289.796 32.8603 289.796 31.4097V22.2297C289.796 21.4527 290.246 20.7441 290.954 20.4249C295.657 18.3057 300.178 16.7334 304.516 15.708C309.209 14.5133 313.903 13.916 318.596 13.916C327.471 13.916 334.34 16.0493 339.204 20.316C344.068 24.4973 346.5 30.4707 346.5 38.236V79.5C346.5 80.6046 345.605 81.5 344.5 81.5H332.5C331.395 81.5 330.5 80.6046 330.5 79.5V77.5141C330.5 77.1009 330.026 76.8639 329.689 77.103C327.104 78.9373 324.346 80.3176 321.412 81.244C318.255 82.1827 314.799 82.652 311.044 82.652ZM302.212 62.044C302.212 64.6893 303.364 66.8227 305.668 68.444C308.057 70.0653 311.215 70.876 315.14 70.876C318.127 70.876 320.9 70.492 323.46 69.724C325.795 69.0462 327.897 68.0029 329.766 66.5939C330.24 66.2367 330.5 65.6688 330.5 65.0753V57.3077C330.5 56.5276 330.049 55.8126 329.326 55.5189C327.458 54.7598 325.503 54.2042 323.46 53.852C321.071 53.34 318.511 53.084 315.78 53.084C311.513 53.084 308.185 53.8947 305.796 55.516C303.407 57.052 302.212 59.228 302.212 62.044Z" fill="white"/>
<path d="M407.7 81.584C406.595 81.584 405.7 80.6886 405.7 79.584V15.5C405.7 14.3954 406.595 13.5 407.7 13.5L419.956 13.5C421.061 13.5 421.956 14.3954 421.956 15.5V19.6224C421.956 20.0612 422.485 20.2914 422.817 20.004C427.436 16.0013 433.037 14 439.62 14C443.972 14 447.855 14.9387 451.268 16.816C453.938 18.1836 456.211 19.9489 458.086 22.1118C458.962 23.1229 460.569 23.1983 461.506 22.243C463.817 19.8865 466.42 18.0348 469.316 16.688C473.071 14.896 477.209 14 481.732 14C486.681 14 491.033 15.1093 494.788 17.328C498.543 19.5467 501.487 22.6613 503.62 26.672C505.839 30.5973 506.948 35.1627 506.948 40.368V79.584C506.948 80.6886 506.053 81.584 504.948 81.584H492.82C491.715 81.584 490.82 80.6886 490.82 79.584V42.8C490.82 38.2773 489.583 34.6933 487.108 32.048C484.719 29.4027 481.519 28.08 477.508 28.08C474.692 28.08 472.132 28.6773 469.828 29.872C467.769 30.9808 466.298 32.6341 464.801 34.7763C464.571 35.1045 464.452 35.4968 464.452 35.8972V79.584C464.452 80.6886 463.557 81.584 462.452 81.584H450.196C449.091 81.584 448.196 80.6886 448.196 79.584V42.8C448.196 38.2773 447.001 34.6933 444.612 32.048C442.223 29.4027 439.023 28.08 435.012 28.08C432.281 28.08 429.807 28.6347 427.588 29.744C425.542 30.7671 423.786 32.2619 422.321 34.2284C422.077 34.5546 421.956 34.9539 421.956 35.3607V79.584C421.956 80.6886 421.061 81.584 419.956 81.584H407.7Z" fill="white"/>
</svg>
